<?xml version="1.0" encoding="UTF-8"?><svg id="Layer_1" xmlns="http://www.w3.org/2000/svg" xmlns:xlink="http://www.w3.org/1999/xlink" viewBox="0 0 284 350.63"><defs><style>.cls-1{fill:url(#linear-gradient);stroke-width:0px;}</style><linearGradient id="linear-gradient" x1="85.16" y1="175.31" x2="198.84" y2="175.31" gradientUnits="userSpaceOnUse"><stop offset="0" stop-color="#3e81c3"/><stop offset="1" stop-color="#7bcede"/></linearGradient></defs><path class="cls-1" d="m193.71,190.44c-6.2,17.59-14.09,31.29-25.77,42.63-7.32,7.11-15.61,12.74-25.42,15.85-9.38,2.97-18.74,3.04-27.94-.72-7.05-2.88-12.68-7.6-17.18-13.69-6.15-8.33-9.47-17.8-11.11-27.92-1.71-10.58-1.38-21.13.44-31.67,1.29-7.46,3.34-14.71,6.13-21.73,6.19-15.62,15.14-29.34,28.22-40.11,7.55-6.22,15.95-10.79,25.64-12.72,8.12-1.61,16.04-.9,23.63,2.44,7.54,3.32,13.36,8.72,17.85,15.57,6.22,9.48,9.17,20.06,10.24,31.23.93,9.68.35,19.3-1.7,28.8-1.05,4.85-2.39,9.63-3,12.04Zm-26.46-82.59c.49-1.28.16-1.73-.95-1.61-.54.06-1.08.22-1.59.42-2.93,1.17-5.42,2.99-7.34,5.48-2.37,3.08-4.72,6.19-6.85,9.43-6.66,10.16-11.87,20.97-14.51,32.91-1.94,8.78-2.09,17.53.15,26.29,2.27,8.88,2,17.77-.34,26.59-1.91,7.16-5,13.82-9.2,19.93-2.66,3.87-5.43,7.67-9.33,10.47-.79.57-1.48,1.34-2.03,2.15-.39.58-.86,1.59-.61,2.03.47.85,1.53.41,2.17.04,2.26-1.29,4.68-2.43,6.61-4.12,11.84-10.39,19.87-23.19,23.63-38.55,2.08-8.49,2.21-17.05.03-25.53-2.71-10.51-1.94-20.84,1.19-31.08,3.79-12.42,10.07-23.53,18.11-33.68.36-.46.69-.94.87-1.2Z"/></svg>