<?xml version="1.0" encoding="UTF-8"?><svg id="Layer_1" xmlns="http://www.w3.org/2000/svg" viewBox="0 0 284 350.63"><defs><style>.cls-1{fill:#0eaa4b;stroke-width:0px;}</style></defs><path class="cls-1" d="m138.5,246.9c-7.75,7.3-15.99,13.64-18.51,24.38-1.09,4.67-1.29,9.33-.77,14.05-1.91-7.28-1.42-14.42,1.19-21.46,1.74-4.69,4.61-8.67,7.76-12.49,2.86-3.46,5.52-7.07,6.19-11.67.22-1.54.04-3.15-.09-4.71-.41-4.82-.92-9.64-1.33-14.46-.08-.97.07-1.96.12-3-14.61,2.43-25.21-3.04-31.39-16.08-4.67-9.85-3.66-19.63,2.66-28.94,11.41,9.07,20.75,19.72,29.07,31.5,4.11-52.88,5.49-105.77,4.94-158.74,9.66,51.9,14.04,104.26,13.65,157.14,8.08-10.22,16.45-20.05,25.96-29.16,2.61,3.73,3.94,7.76,4.21,12.11,1.06,17.13-11.82,31.05-29,31.33-1.28.02-1.65.6-2.15,1.55-2.43,4.58-1.32,8.82,1.33,12.77,2.22,3.31,4.82,6.36,7.16,9.6,6.53,9.02,9,19.15,8.08,30.18.04-7.28-1.55-14.16-4.97-20.61-3.4-6.42-8.66-11.13-14.06-15.72-.22.06-.43.13-.65.19.55,3.84.99,7.69,1.68,11.51,1.11,6.15,2.51,12.25,3.51,18.42.47,2.93.54,5.99.33,8.96-.28,3.99.7,7.5,2.86,10.78,2.09,3.18,4.08,6.4,4.52,10.32.41,3.62-.39,6.91-2.4,9.97,2.67-8.26-.59-14.52-6.67-20.21-3.84,12.44-11.18,21.97-22.25,28.61,11.6-10.92,17.3-24.2,16.48-40.29-7.19,3.12-11.08,10.96-10.04,19.65-2.19-4.43-2.07-8.91,0-13.33.73-1.55,1.82-2.93,2.84-4.32.9-1.24,1.95-2.36,2.9-3.57,2.52-3.22,3.76-6.54,1.91-10.7-1.91-4.3-3.32-8.83-5.06-13.55Z"/><path class="cls-1" d="m50.38,38.1c38.2-4.19,75.33,20.43,85.58,56.9-6.39-5.14-12.94-10.71-19.82-15.86-6.86-5.13-14.43-9.14-22.4-12.41,13.42,11.31,26.09,23.33,37.65,36.54-6.37,2.44-31.46-5.01-44.28-13.36-18.99-12.36-30.94-29.77-36.74-51.82Z"/><path class="cls-1" d="m152.7,103.55c11.43-13.43,24.09-25.5,37.56-36.79-8.01,3.22-15.56,7.27-22.43,12.4-6.86,5.12-13.4,10.68-20.06,16.03,5.13-16.28,14.35-30.02,28.03-40.59,16.91-13.07,36.18-18.3,57.82-16.7-4.08,16.39-11.87,30.31-23.83,41.78-15.91,15.26-35.08,22.94-57.1,23.87Z"/></svg>