<?xml version="1.0" encoding="UTF-8"?><svg id="Layer_1" xmlns="http://www.w3.org/2000/svg" xmlns:xlink="http://www.w3.org/1999/xlink" viewBox="0 0 284 350.63"><defs><style>.cls-1{fill:url(#linear-gradient);}.cls-1,.cls-2{stroke-width:0px;}.cls-2{fill:url(#linear-gradient-2);}</style><linearGradient id="linear-gradient" x1="27.95" y1="148.42" x2="224.32" y2="148.42" gradientUnits="userSpaceOnUse"><stop offset="0" stop-color="#3e81c3"/><stop offset="1" stop-color="#7bcede"/></linearGradient><linearGradient id="linear-gradient-2" x1="28.18" y1="266.73" x2="256.05" y2="266.73" xlink:href="#linear-gradient"/></defs><path class="cls-1" d="m175.6,77.42c-15.27,13.1-22.34,30.51-26.06,49.49-4.85,24.75-2.17,49.55-.08,74.92,4.82-4.06,9.11-7.67,13.45-11.32-3.01-8.57-1.37-13.26,7.07-17.1,12.05-5.48,23.94-4.03,35.21,2.39,8.66,4.93,14.96,12.22,19.13,20.05-4.9,3.6-9.65,6.65-13.89,10.3-6.39,5.48-12.9,10.28-21.9,9.8-8.58-.46-14.62-4.72-18.66-12.07,5.48-7.47,12.24-9.82,31.63-11.07-12.25-4.97-28.22-2.19-38.65,6.18-11.89,9.55-15.62,21.99-13.11,36.94h-10.75c2.64-22.01-2.46-41.36-21.47-54.22-5.26,4.7-9.89,10.07-15.63,13.7-14.96,9.47-31.12,6.79-42.81-6.41-2.79-3.15-5.24-6.63-7.6-10.13-3.42-5.08-6.28-10.57-10.01-15.39-3.7-4.78-8.19-8.95-13.53-14.67,15.69-6.28,30.66-13.56,46.4-18.13,11.08-3.22,23.1-1.72,33.95,3.77,12.31,6.23,18.3,16.75,21.12,30.95-19.65-11.15-39.47-17.45-61.4-15.98,28.94,4.82,51.21,20.79,70.72,42.67.6-12.12.96-23.24,1.74-34.32.74-10.53,2.07-21.02,2.8-31.56.15-2.13-.56-4.95-1.95-6.47-14.5-15.85-12.86-33.43,4.53-46.15,12.75-9.32,31.12-13.98,46.86-12.3,0,8.86-.1,17.58.03,26.29.14,9.22-.78,18.18-5.61,26.28-6.1,10.21-18.37,14.46-30.07,10.18,1.22-17.46,8.47-32.56,18.53-46.59Z"/><path class="cls-2" d="m220.7,266.08c18.32-11.76,35.25,2.31,35.35,16.54.04,5.55-1.54,7.1-7.16,7.08-69.13-.2-138.25-.13-207.38-.13h-13.19c-1.14-9.3,4.79-16.53,13.97-17.74,1.72-.23,3.86-.6,4.94-1.73,9.37-9.88,13.12-10.7,25.86-5.13,12.86-19.17,33.69-16.08,44.21-2.67,5.79-9.49,13.76-16.12,24.72-17.99,11.02-1.88,20.93,1.14,29.37,8.48,14.57-14.13,39.65-12.87,49.32,13.29Z"/></svg>