<?xml version="1.0" encoding="UTF-8"?><svg id="Layer_1" xmlns="http://www.w3.org/2000/svg" viewBox="0 0 1316.84 540"><defs><style>.cls-1{font-size:176.43px;}.cls-1,.cls-2,.cls-3{fill:#1b75ba;font-family:Krungthep, Krungthep;}.cls-2{font-size:112.83px;letter-spacing:.2em;}.cls-3{font-size:100.92px;letter-spacing:.1em;}.cls-4{fill:#0872b9;}.cls-4,.cls-5,.cls-6,.cls-7,.cls-8,.cls-9,.cls-10,.cls-11,.cls-12,.cls-13,.cls-14,.cls-15,.cls-16,.cls-17,.cls-18,.cls-19{fill-rule:evenodd;stroke-width:0px;}.cls-5{fill:#56c3ce;}.cls-6{fill:#47a3ac;}.cls-7{fill:#5fba5b;}.cls-8{fill:#94d3d0;}.cls-9{fill:#af87bc;}.cls-10{fill:#a9d499;}.cls-11{fill:#d73832;}.cls-12{fill:#e78369;}.cls-13{fill:#eb8029;}.cls-14{fill:#f5c31f;}.cls-15{fill:#fddf90;}.cls-16{fill:#7ca4d5;}.cls-17{fill:#bae2e3;}.cls-18{fill:#8f499b;}.cls-19{fill:#f8b181;}</style></defs><path class="cls-9" d="m309.56,400.29c13.13,13.13,34.62,13.13,47.75,0l19.7-19.7c-13.13,13.13-34.62,13.13-47.75,0-20.69-20.69-41.38-41.38-62.07-62.08-13.13-13.13-13.13-34.62,0-47.75l-19.7,19.7c-13.13,13.13-13.13,34.62,0,47.75l62.07,62.07Z"/><path class="cls-18" d="m268.67,379.43l31.04,31.04c13.13,13.13,13.13,34.62,0,47.75l-19.7,19.7c13.13-13.13,13.13-34.62,0-47.75l-31.04-31.04,19.7-19.69Z"/><path class="cls-16" d="m227.79,400.29c-13.13,13.13-34.62,13.13-47.75,0l-19.7-19.7c13.13,13.13,34.62,13.13,47.75,0,20.69-20.69,41.38-41.38,62.07-62.08,13.13-13.13,13.13-34.62,0-47.75l19.7,19.7c13.13,13.13,13.13,34.62,0,47.75l-62.07,62.07Z"/><path class="cls-4" d="m268.67,379.43l-31.04,31.04c-13.13,13.13-13.13,34.62,0,47.75l19.7,19.7c-13.13-13.13-13.13-34.62,0-47.75l31.04-31.04-19.7-19.69Z"/><path class="cls-10" d="m227.79,136.39c-13.13-13.13-34.62-13.13-47.75,0l-19.7,19.7c13.13-13.13,34.62-13.13,47.75,0,20.69,20.69,41.38,41.38,62.07,62.07,13.13,13.13,13.13,34.62,0,47.75l19.7-19.7c13.13-13.13,13.13-34.62,0-47.75l-62.07-62.07Z"/><path class="cls-7" d="m268.67,157.91l-31.04-31.04c-13.13-13.13-13.13-34.62,0-47.75l19.7-19.7c-13.13,13.13-13.13,34.62,0,47.75l31.04,31.04-19.7,19.7Z"/><path class="cls-8" d="m137.21,309.39c-13.13,13.13-13.13,34.62,0,47.75l19.7,19.7c-13.13-13.13-13.13-34.62,0-47.75,20.69-20.69,41.38-41.38,62.07-62.07,13.13-13.13,34.62-13.13,47.75,0l-19.7-19.7c-13.13-13.13-34.62-13.13-47.75,0l-62.07,62.07Z"/><path class="cls-6" d="m158.07,268.5l-31.04,31.04c-13.13,13.13-34.62,13.13-47.75,0l-19.7-19.7c13.13,13.13,34.62,13.13,47.75,0l31.04-31.04,19.7,19.69Z"/><path class="cls-19" d="m400.78,227.62c13.13-13.13,13.13-34.62,0-47.75l-19.7-19.7c13.13,13.13,13.13,34.62,0,47.75-20.69,20.69-41.38,41.38-62.07,62.07-13.13,13.13-34.62,13.13-47.75,0l19.7,19.7c13.13,13.13,34.62,13.13,47.75,0l62.07-62.07Z"/><path class="cls-13" d="m379.27,268.5l31.04-31.04c13.13-13.13,34.62-13.13,47.75,0l19.7,19.7c-13.13-13.13-34.62-13.13-47.75,0l-31.04,31.04-19.69-19.7Z"/><path class="cls-12" d="m400.78,309.39c13.13,13.13,13.13,34.62,0,47.75l-19.7,19.7c13.13-13.13,13.13-34.62,0-47.75-20.69-20.69-41.38-41.38-62.07-62.07-13.13-13.13-34.62-13.13-47.75,0l19.7-19.7c13.13-13.13,34.62-13.13,47.75,0l62.07,62.07Z"/><path class="cls-11" d="m379.27,268.5l31.04,31.04c13.13,13.13,34.62,13.13,47.75,0l19.7-19.7c-13.13,13.13-34.62,13.13-47.75,0l-31.04-31.04-19.69,19.69Z"/><path class="cls-15" d="m309.56,136.39c13.13-13.13,34.62-13.13,47.75,0l19.7,19.7c-13.13-13.13-34.62-13.13-47.75,0-20.69,20.69-41.38,41.38-62.07,62.07-13.13,13.13-13.13,34.62,0,47.75l-19.7-19.7c-13.13-13.13-13.13-34.62,0-47.75l62.07-62.07Z"/><path class="cls-14" d="m268.67,157.91l31.04-31.04c13.13-13.13,13.13-34.62,0-47.75l-19.7-19.7c13.13,13.13,13.13,34.62,0,47.75l-31.04,31.04,19.7,19.7Z"/><path class="cls-17" d="m137.21,227.62c-13.13-13.13-13.13-34.62,0-47.75l19.7-19.7c-13.13,13.13-13.13,34.62,0,47.75,20.69,20.69,41.38,41.38,62.07,62.07,13.13,13.13,34.62,13.13,47.75,0l-19.7,19.7c-13.13,13.13-34.62,13.13-47.75,0l-62.07-62.07Z"/><path class="cls-5" d="m158.07,268.5l-31.04-31.04c-13.13-13.13-34.62-13.13-47.75,0l-19.7,19.7c13.13-13.13,34.62-13.13,47.75,0l31.04,31.04,19.7-19.7Z"/><text class="cls-1" transform="translate(512.64 324.47)"><tspan x="0" y="0">TALENTA</tspan></text><text class="cls-3" transform="translate(513.46 165.4)"><tspan x="0" y="0">MANAJEMEN</tspan></text><text class="cls-2" transform="translate(520.94 433.68)"><tspan x="0" y="0">NASIONAL</tspan></text></svg>