<svg width="1153" height="200" viewBox="0 0 1153 200" fill="none" xmlns="http://www.w3.org/2000/svg">
<rect width="1153" height="200" rx="10" fill="#4575B8"/>
<path d="M78.9984 200H9.99998C4.47714 200 0 195.523 0 190V121.002C0.166544 121.001 0.333211 121 0.5 121C43.8544 121 79 156.146 79 199.5C79 199.579 78.9999 199.658 78.9996 199.738C78.9994 199.825 78.999 199.913 78.9984 200Z" fill="white" fill-opacity="0.37"/>
<path d="M97.9981 200H12.405C5.55392 200 0 194.446 0 187.595V102.002C0.206599 102.001 0.413351 102 0.620253 102C54.4016 102 98 145.598 98 199.38C98 199.478 97.9999 199.576 97.9996 199.675C97.9992 199.783 97.9987 199.892 97.9981 200Z" fill="white" fill-opacity="0.37"/>
<path d="M117.998 200H14.9367C6.68737 200 0 193.313 0 185.063V82.0023C0.248762 82.0008 0.497708 82 0.746835 82C65.504 82 118 134.496 118 199.253C118 199.372 118 199.49 117.999 199.608C117.999 199.739 117.998 199.869 117.998 200Z" fill="white" fill-opacity="0.37"/>
</svg>
