<svg width="1153" height="120" viewBox="0 0 1153 120" fill="none" xmlns="http://www.w3.org/2000/svg">
<rect width="1153" height="120" rx="10" fill="#4575B8"/>
<path d="M51.5498 120H6.52541C2.92152 120 0 117.079 0 113.475V68.4502C0.108677 68.4496 0.217435 68.4492 0.326271 68.4492C28.6168 68.4492 51.5508 91.3832 51.5508 119.674C51.5508 119.726 51.5508 119.777 51.5506 119.829C51.5504 119.886 51.5502 119.943 51.5498 120Z" fill="white" fill-opacity="0.37"/>
<path d="M63.9479 120H8.09482C3.62416 120 0 116.376 0 111.905V56.052C0.134815 56.0512 0.269729 56.0508 0.404741 56.0508C35.4993 56.0508 63.9492 84.5006 63.9492 119.595C63.9492 119.659 63.9491 119.723 63.9489 119.788C63.9487 119.858 63.9483 119.929 63.9479 120Z" fill="white" fill-opacity="0.37"/>
<path d="M76.9985 120H9.74682C4.36379 120 0 115.636 0 110.253V43.0015C0.162328 43.0005 0.324776 43 0.487342 43C42.7441 43 77 77.2559 77 119.513C77 119.59 76.9999 119.667 76.9997 119.744C76.9994 119.83 76.999 119.915 76.9985 120Z" fill="white" fill-opacity="0.37"/>
</svg>
